<svg xmlns="http://www.w3.org/2000/svg" height="800" width="1200" viewBox="-67.5 -145.44125 585 872.6475"><defs><radialGradient gradientUnits="userSpaceOnUse" gradientTransform="matrix(5.65086 0 0 -5.65086 53.643 750.098)" r="1" cy="0" cx="0" id="a"><stop offset="0" stop-color="#fcd605"/><stop offset=".483" stop-color="#fcd605"/><stop offset=".991" stop-color="#df2c2f"/><stop offset="1" stop-color="#df2c2f"/></radialGradient></defs><path fill="#212f5c" d="M18.055 92.514h416.66v334.613S273.3 568.287 225.317 567.69c-48.001-.598-208.059-141.36-208.059-141.36z"/><g fill="#df2c2f"><path d="M22.882 80.446s-4.416 90.084-3.62 96.527c93.703-78.029 277.11-105.377 411.429-2.407 0 0 2.407-83.658 0-93.323-134.32-94.102-320.93-61.124-407.81-.797m155.242 145.486l10.86-7.783 42.426 7.783 7.44 5.882-9.25 8.417h-32.833l-2.48 11.602 34.119 4.525-9.973 8.941h-27.006l4.797 18.01-10.57 9.194h-21.684zm63.347 0l9.05-7.783 12.562 7.783-8.543 59.385-6.39 7.186h-23.221zm47.694 26.965h9.068c.978 0 2.95-.308 5.883-.905 1.484-.272 2.805-.977 3.945-2.082 1.14-1.122 1.865-2.407 2.172-3.855.453-2.154.091-3.8-1.104-4.941-1.176-1.14-3.728-1.72-7.638-1.72h-9.448zM259.082 292.5l14.154-66.572 7.838-8.58 28.072 8.58c6.661 0 11.639.543 14.933 1.629 3.276 1.104 5.683 3.113 7.222 6.064 1.52 2.968 1.846 6.552.941 10.787-.778 3.692-11.946 4.036-14.154 6.715-2.226 2.679 4.706 7.693 1.448 9.358-2.064 1.068-4.76 1.936-8.127 2.642 2.407.815 4.09 1.63 5.086 2.444.688.561 1.593 1.72 2.715 3.511 1.122 1.792 1.828 3.168 2.136 4.127l14.027 11.71-7.674 7.585h-24.363l-7.185-20.345c-.905-2.624-1.846-4.344-2.806-5.122-1.34-1.032-2.986-1.557-4.96-1.557h-1.9l1.847 19.44-6.046 7.222z"/><path d="M347.118 223.378l9.177-5.63 48.58 8.182 4.905 5.484-8.615 8.724h-36.128l-2.787 10.589 38.68 5.23-8.689 8.327h-33.539l-3.42 13.14 41.231 7.077-7.982 8h-58.807zm-221.68-40.622l10.063-4.416 12.453 9.647c-2.787 5.303-11.258 14.552-15.023 18.118-3.747 3.548-7.891 6.226-12.453 8.036-4.579 1.81-9.973 2.715-16.235 2.715-7.584 0-13.467-1.086-17.63-3.294-4.18-2.208-7.221-6.081-9.122-11.638-1.882-5.557-1.593-12.67.887-21.322 3.312-11.547 8.923-20.435 16.851-26.625 7.91-6.208 17.503-9.303 28.725-9.303 8.796 0 15.185 1.774 19.204 5.321 1.954 1.738 14.19 3.367 15.656 5.81 1.213 2.01-9.14 10.57-9.14 10.57l-20.272 4.236c-.055-2.118-.308-3.674-.76-4.652-.724-1.665-1.829-2.932-3.33-3.819-1.485-.887-3.313-1.34-5.467-1.34-4.887 0-9.195 1.974-12.905 5.902-2.824 2.914-5.104 7.511-6.896 13.755-2.227 7.73-2.57 13.05-1.05 15.91 1.52 2.878 4.416 4.308 8.652 4.308 4.126 0 5.375-1.919 8.145-4.235 2.769-2.317 7.42-9.267 9.647-13.684m62.416 6.322l-.507-25.104-14.824 25.104zm-2.263 15.078l-15.91.325-2.823 4.417-8.851 6.842H133.48l45.847-72.4 11.657-6.444 20.525 2.028 5.231 61.521-2.425 14.896-28.544-.416z"/><path d="M230.005 144.95l12.47-7.637-3.149 61.141 38.137 8.037-9.449 9.158h-55.186z"/></g><path fill="url(#a)" d="M52.88 751.698l-2.49 3.003 1.796-3.464-3.497 1.731 3.048-2.435-3.897.16 3.775-.984-3.626-1.44 3.849.636-2.726-2.791 3.257 2.148-1.356-3.658 2.102 3.286.294-2.998.379 3.7 1.252-2.591-.315 2.16 2.076-.986-1.492 1.581 2.471-.341-2.181 1.122 3.847.654-3.898.179 3.248 2.161-3.633-1.423 2.087 3.297-2.74-2.777.566 3.86-1.373-3.652-1.053 3.756z" transform="matrix(18.09991 0 0 -18.09991 -651.606 14009.336)"/><path d="M135.134 177.444l17.267 5.72c-2.787 5.303-6.063 9.737-9.81 13.285-3.747 3.547-7.91 6.244-12.47 8.054-4.562 1.81-9.974 2.715-16.218 2.715-7.584 0-13.467-1.104-17.648-3.312-4.163-2.208-7.203-6.082-9.104-11.638-1.9-5.557-1.593-12.652.887-21.322 3.312-11.548 8.923-20.417 16.833-26.625 7.928-6.208 17.503-9.303 28.743-9.303 8.778 0 15.185 1.773 19.204 5.34 4 3.547 6.172 9.013 6.497 16.38l-20.271 4.235c-.055-2.136-.29-3.692-.743-4.67-.742-1.665-1.846-2.914-3.33-3.819-1.484-.887-3.312-1.321-5.466-1.321-4.887 0-9.195 1.955-12.923 5.882-2.806 2.932-5.105 7.512-6.897 13.756-2.208 7.747-2.57 13.05-1.031 15.91 1.52 2.878 4.398 4.308 8.652 4.308 4.126 0 7.565-1.159 10.335-3.475 2.787-2.317 5.267-5.684 7.493-10.1m62.374 1.98l-.507-25.105-14.824 25.105zm.145 15.077h-24.49l-6.678 11.512h-22.028l46.155-69.794h23.566l6.226 69.794h-22.552zm44.83-58.278h21.557l-15.06 52.58h33.63l-4.941 17.195h-55.187zm-53.902 81.263h53.286l-3.04 14.3h-31.603l-2.48 11.601h26.987l-2.841 13.467h-27.005l-5.774 27.204h-21.684zm61.737 0h21.611l-16.543 66.572h-21.611zm46.086 26.967h9.068c.978 0 2.95-.307 5.883-.905 1.484-.271 2.805-.977 3.945-2.081 1.14-1.122 1.847-2.407 2.172-3.855.453-2.154.09-3.801-1.104-4.942-1.176-1.158-3.728-1.72-7.656-1.72h-9.43zm-30.1 39.603l14.172-66.572h35.91c6.661 0 11.639.543 14.933 1.63 3.276 1.104 5.683 3.113 7.222 6.063 1.52 2.95 1.846 6.552.94 10.787-.777 3.693-2.298 6.878-4.506 9.557-2.226 2.679-4.941 4.851-8.2 6.516-2.063 1.068-4.76 1.937-8.126 2.643 2.407.814 4.09 1.629 5.086 2.443.688.561 1.593 1.72 2.715 3.512 1.122 1.792 1.828 3.167 2.136 4.126l6.353 19.295h-24.38l-7.186-20.344c-.887-2.625-1.828-4.344-2.788-5.14-1.34-1.014-2.986-1.54-4.96-1.54h-1.9l-5.737 27.024zm89.663-66.57h57.757l-3.692 14.19h-36.146l-2.787 10.607h33.539l-3.548 13.557h-33.539l-3.42 13.14h37.195l-3.946 15.078h-58.807z" fill="#fff"/><path stroke-width="17.883" stroke="#fac517" fill="none" d="M430.496 176.97c-116.02-93.305-294.595-93.305-413.439 0"/><path d="M56.658 104.373c-.597.742-2.081 2.135-4.072 3.312-6.227 3.71-9.738.652-10.697-4.815-1.267-7.276 2.425-13.737 7.511-16.742 1.955-1.158 3.638-1.61 4.416-1.557-.072 1.63-.126 3.24-.199 4.87-.796.072-1.9.307-3.258 1.103-2.624 1.539-4.543 4.797-3.837 9.014.634 3.783 2.824 4.996 5.9 3.168 1.087-.634 2.281-1.63 2.915-2.372.434 1.34.887 2.68 1.321 4.019m9.671-14.453c-.453-1.104-.905-2.226-1.358-3.33-.416-1.05-1.013-2.553-1.448-3.657-.018 0-.036 0-.054.018-.072 1.376-.072 3.24-.145 4.562-.054 1.357-.108 2.733-.18 4.09 1.067-.56 2.117-1.122 3.185-1.683m-3.168 6.154l-.217 5.357c-1.574.851-3.131 1.72-4.688 2.589.543-7.838 1.123-15.693 1.738-23.548a402.268 402.268 0 016.172-3.276 1399.698 1399.698 0 018.163 18.299 319.314 319.314 0 00-4.96 2.516c-.597-1.43-1.194-2.86-1.791-4.272-1.466.76-2.95 1.557-4.417 2.335m10.457-22.63c1.574-.76 3.15-1.52 4.724-2.263.742 5.43 1.466 10.86 2.19 16.29 2.226-1.05 4.47-2.063 6.715-3.059l.597 4.724a336.66 336.66 0 00-11.312 5.267c-.978-6.986-1.937-13.973-2.914-20.96m18.675-8.449l2.552 21.123c-1.574.652-3.149 1.34-4.706 2.01a8382.218 8382.218 0 01-2.642-21.087c1.593-.688 3.185-1.376 4.796-2.046m3.302-1.355a348.828 348.828 0 0111.62-4.47c.163 1.556.326 3.094.489 4.633-2.245.832-4.49 1.665-6.734 2.534.145 1.321.29 2.624.435 3.927 2.1-.814 4.217-1.592 6.335-2.37.145 1.538.326 3.058.488 4.597a237.52 237.52 0 00-6.298 2.37c.307 2.68.597 5.358.905 8.055a215.974 215.974 0 00-4.743 1.865c-.832-7.041-1.665-14.082-2.497-21.141m20.129 3.601c.398 3.983 2.117 5.937 4.452 5.177 2.317-.742 3.44-3.855 3.095-7.692-.344-3.674-2.009-6.027-4.38-5.25-2.335.761-3.548 3.856-3.167 7.766m12.706-4.272c.597 6.878-2.516 12.254-8.073 14.046-5.557 1.828-9.122-2.01-9.756-7.91-.651-6.154 2.317-12.362 7.946-14.19 5.919-1.9 9.376 2.353 9.883 8.054m7.38-3.327c.433-.108.85-.235 1.284-.344 1.864-.488 2.842-1.846 2.715-3.439-.108-1.61-1.104-2.28-2.751-1.882-.923.253-1.412.453-1.665.58.145 1.7.271 3.384.416 5.085m-5.647-7.62c1.375-.651 3.475-1.448 5.955-2.1 2.841-.76 4.923-.832 6.425.037 1.267.76 2.027 2.118 2.19 4.217.2 2.679-1.393 5.014-2.805 5.973 0 .054 0 .09.018.127 1.267.29 2.027 1.502 2.624 3.24.743 2.063 1.557 5.032 1.973 5.774-1.665.398-3.348.814-5.013 1.248-.326-.579-.905-2.117-1.666-4.615-.687-2.443-1.411-2.805-2.932-2.407-.271.072-.525.145-.796.217l.651 8.036c-1.61.435-3.221.887-4.814 1.34-.616-7.023-1.213-14.064-1.81-21.087m18.503 16.77c-.506-7.15-.995-14.317-1.502-21.467 1.973-.452 3.946-.887 5.919-1.32a639.978 639.978 0 013.384 5.99c1.159 1.919 2.408 4.58 3.385 6.95.036-.018.054-.018.09-.036-.452-2.769-.741-5.755-.94-8.977-.091-1.684-.2-3.385-.29-5.068 1.538-.308 3.059-.598 4.597-.869l1.195 21.52c-1.738.308-3.475.652-5.195.996a1769.12 1769.12 0 00-3.566-6.516c-1.194-2.081-2.588-4.688-3.656-7.113-.018 0-.036.018-.072.018.308 2.878.561 6.118.796 9.593.109 1.756.236 3.53.344 5.285-1.502.326-2.986.67-4.489 1.014m23.215-26.256l1.032 21.557c-1.665.254-3.33.525-4.977.815-.38-7.186-.742-14.354-1.123-21.54 1.684-.289 3.385-.56 5.068-.832m13.092 10.56c-.344-1.25-.67-2.516-1.014-3.765-.307-1.177-.742-2.896-1.067-4.145h-.055c-.235 1.321-.452 3.15-.688 4.398-.217 1.303-.434 2.625-.651 3.946l3.475-.434m-3.982 4.814a501.419 501.419 0 01-.85 5.122c-1.702.236-3.422.49-5.141.743a1878.663 1878.663 0 014.525-22.354c2.244-.29 4.489-.56 6.751-.832a2011.689 2011.689 0 016.299 21.014c-1.792.18-3.602.362-5.394.56-.452-1.61-.905-3.24-1.357-4.85-1.611.18-3.222.38-4.833.597m24.388-1.641c.253.054.724.018 1.05 0 3.258-.11 5.629-2.281 5.574-7.168-.036-4.2-2.262-6.118-5.32-5.937-.815.036-1.286.127-1.54.2.073 4.307.163 8.615.236 12.905m-5.412-16.67c1.629-.399 3.801-.706 6.063-.833 3.639-.2 5.937.38 7.856 1.792 2.1 1.574 3.475 4.253 3.511 8.217.018 4.398-1.412 7.294-3.24 8.978-2.027 1.936-5.068 2.896-8.724 3.095-2.407.163-4.018.072-4.995-.054-.163-7.06-.326-14.118-.471-21.195m31.955 11.75c-2.262-.054-4.506-.054-6.769-.054v3.964c2.516 0 5.032.036 7.548.09 0 1.575-.018 3.168-.018 4.742-4.181-.09-8.38-.09-12.562-.036-.018-7.204-.054-14.426-.09-21.63 4.127-.072 8.253-.054 12.398.019-.018 1.574-.018 3.15-.036 4.724a482.743 482.743 0 00-7.24-.073v3.512c2.263-.018 4.525.018 6.788.054 0 1.557-.019 3.131-.019 4.688m8.659-2.775c.29.036.616.09 1.14.109 1.992.108 3.259-.978 3.295-2.842.018-1.593-.923-2.751-2.842-2.842-.76-.036-1.267 0-1.52.055-.018 1.846-.054 3.674-.073 5.52m-4.94-9.756c1.393-.199 3.402-.343 6.316-.199 2.751.127 4.688.797 5.991 2.046 1.285 1.176 2.118 3.167 2.063 5.375-.054 2.172-.742 4.055-1.936 5.195-1.575 1.466-3.783 2.009-6.317 1.882-.489-.018-.923-.072-1.23-.108l-.11 7.348a454.055 454.055 0 00-4.959-.199c.073-7.113.127-14.226.181-21.34m24.435 13.652c-.253-1.322-.489-2.643-.76-3.965-.235-1.248-.543-3.04-.778-4.362h-.055c-.326 1.25-.67 3.023-.977 4.218-.308 1.267-.616 2.516-.905 3.764 1.158.11 2.317.236 3.475.344m-4.272 3.892c-.398 1.647-.796 3.276-1.194 4.923-1.72-.145-3.457-.29-5.177-.416a2030.948 2030.948 0 016.01-21.177c2.244.199 4.506.416 6.769.651a2315.662 2315.662 0 014.832 22.245 543.32 543.32 0 00-5.375-.633c-.344-1.702-.688-3.403-1.032-5.123-1.61-.162-3.222-.325-4.833-.47m19.094-5.014c.434.054.869.127 1.303.2 1.9.27 3.041-.634 3.113-2.227.073-1.629-.796-2.679-2.48-2.968-.94-.145-1.447-.145-1.7-.127-.091 1.701-.164 3.42-.236 5.122m-4.615-9.756c1.43-.072 3.601.037 6.135.417 2.878.434 4.942 1.212 6.3 2.678 1.158 1.25 1.737 2.896 1.628 5.014-.145 2.679-1.99 4.29-3.493 4.67v.127c1.213.814 1.81 2.298 2.172 4.217.47 2.317.905 5.556 1.23 6.443-1.7-.29-3.384-.579-5.085-.85-.254-.688-.634-2.426-1.05-5.159-.38-2.679-1.05-3.33-2.607-3.565-.253-.037-.524-.073-.796-.11-.127 2.698-.235 5.395-.362 8.092-1.647-.236-3.276-.471-4.941-.688zm20.59 7.917a442.415 442.415 0 00-4.778-.887c.09-1.61.18-3.221.253-4.832 4.923.887 9.828 1.864 14.715 2.968-.108 1.61-.217 3.204-.326 4.815a381.56 381.56 0 00-4.85-1.05c-.344 5.556-.688 11.113-1.05 16.67-1.647-.344-3.294-.67-4.941-.996l.977-16.688m26.976 15.517c.145-2.461.326-5.321.634-8.651-.018-.019-.055-.019-.073-.019a170.913 170.913 0 01-2.642 7.838c-.815 2.316-1.611 4.651-2.426 6.968-1.267-.344-2.534-.67-3.8-.995a1087.56 1087.56 0 00-.996-7.838c-.29-2.443-.616-5.755-.815-8.796h-.054a861.212 861.212 0 00-.941 8.561c-.29 2.552-.561 5.068-.833 7.602a409.022 409.022 0 00-4.525-1.068c.869-7.059 1.756-14.136 2.625-21.195 2.244.525 4.488 1.068 6.733 1.647.253 2.01.525 4.037.796 6.064.308 2.516.634 5.52.815 8.217.018.018.072.018.108.036.724-2.48 1.557-5.321 2.28-7.439.616-1.774 1.232-3.565 1.847-5.34 2.172.598 4.362 1.213 6.534 1.847-.326 7.222-.633 14.426-.96 21.647-1.574-.47-3.148-.94-4.741-1.375l.434-7.71m19.45 5.091a273.376 273.376 0 00-6.498-2.172l-.38 3.91c2.426.778 4.833 1.592 7.258 2.443l-.488 4.67c-4-1.394-8.019-2.715-12.073-3.964l1.955-21.34c4 1.23 7.964 2.534 11.928 3.91l-.489 4.633a311.63 311.63 0 00-6.932-2.335c-.127 1.14-.236 2.299-.344 3.44 2.19.723 4.362 1.447 6.534 2.19-.163 1.538-.308 3.076-.47 4.615m2.541 9.786c.742-7.077 1.502-14.154 2.244-21.249 1.918.688 3.819 1.394 5.738 2.118.705 2.534 1.43 5.068 2.135 7.62.742 2.48 1.448 5.72 1.955 8.507.036.018.054.018.09.036.055-2.896.29-5.882.652-9.068.2-1.665.38-3.33.58-4.996l4.398 1.792c-.851 7.041-1.684 14.082-2.534 21.123-1.647-.67-3.313-1.34-4.978-2.01-.724-2.732-1.466-5.465-2.208-8.198-.742-2.661-1.61-5.937-2.172-8.833-.036-.018-.054-.018-.072-.036a270.403 270.403 0 01-.887 9.574c-.2 1.738-.38 3.476-.58 5.213a309.707 309.707 0 00-4.361-1.593m23.993-7.62c-1.52-.67-3.023-1.321-4.543-1.954l.579-4.725a340.578 340.578 0 0113.919 6.245c-.217 1.557-.417 3.131-.634 4.688-1.52-.706-3.04-1.43-4.561-2.118-.724 5.43-1.43 10.878-2.154 16.308a490.555 490.555 0 00-4.67-2.081c.688-5.467 1.376-10.915 2.064-16.363m19.957 15.785c-.58 3.91.47 7.041 2.679 8.218 2.19 1.194 3.873-.724 4.452-4.453.561-3.584-.344-7.04-2.57-8.235-2.208-1.177-4 .633-4.561 4.47m11.982 6.299c-1.086 6.679-4.978 9.032-10.208 6.226-5.25-2.805-7.494-9.122-6.68-14.932.851-6.082 4.906-9.285 10.209-6.444 5.575 3.005 7.566 9.611 6.679 15.15m4.045-8.762a369.265 369.265 0 0110.86 6.606c-.253 1.503-.525 3.005-.778 4.507a325.498 325.498 0 00-6.263-3.891c-.217 1.285-.434 2.552-.633 3.837a393.912 393.912 0 015.864 3.638l-.76 4.453a317.797 317.797 0 00-5.864-3.62c-.435 2.624-.87 5.249-1.286 7.855-1.502-.905-2.986-1.774-4.488-2.66 1.122-6.915 2.226-13.811 3.348-20.725M36.124 126.808a334.407 334.407 0 0110.86-6.625 392.4 392.4 0 01.742 4.525c-2.1 1.23-4.217 2.498-6.299 3.783.2 1.285.434 2.552.652 3.837a392.726 392.726 0 015.9-3.566c.254 1.503.507 3.005.742 4.507a252.687 252.687 0 00-5.882 3.53l1.357 7.837a877.33 877.33 0 00-4.434 2.77c-1.213-6.86-2.426-13.739-3.638-20.598m19.496-.172c.615 3.891 2.37 5.52 4.578 4.344 2.19-1.195 3.096-4.507 2.534-8.254-.543-3.584-2.298-5.611-4.524-4.416-2.209 1.194-3.204 4.506-2.589 8.326m11.964-6.607c.996 6.733-1.701 12.67-6.932 15.494-5.249 2.841-8.887-.308-9.828-6.064-.996-6.027 1.484-12.76 6.77-15.62 5.592-3.005 9.194.597 9.99 6.19m6.933-4.679c.398-.199.814-.38 1.212-.579 1.774-.833 2.643-2.371 2.444-3.928-.217-1.592-1.213-2.063-2.77-1.357-.886.416-1.357.706-1.574.887.217 1.647.452 3.312.688 4.977m-5.901-6.552c1.303-.905 3.276-2.063 5.629-3.185 2.697-1.267 4.706-1.72 6.208-1.14 1.267.524 2.1 1.737 2.371 3.8.344 2.625-1.068 5.231-2.37 6.462.017.036.017.09.017.127 1.267.054 2.064 1.122 2.752 2.733.814 1.9 1.791 4.724 2.226 5.393-1.593.706-3.186 1.412-4.779 2.154-.343-.506-.995-1.936-1.864-4.271-.814-2.317-1.538-2.534-2.986-1.865-.236.127-.489.236-.742.362l1.086 7.874-4.562 2.226c-.995-6.878-1.99-13.774-2.986-20.67m28.907.177a277.32 277.32 0 00-6.389 2.589l.489 3.891a265.59 265.59 0 017.113-2.878c.181 1.539.362 3.095.543 4.652a330.485 330.485 0 00-11.801 4.869c-.905-7.041-1.792-14.064-2.697-21.105a384.672 384.672 0 0111.656-4.814l.543 4.615a444.37 444.37 0 00-6.823 2.77c.126 1.14.271 2.28.416 3.42a475.65 475.65 0 016.407-2.606l.543 4.597m4.066 1.45c1.158.254 3.004.236 4.796-.398 1.647-.615 2.371-1.557 2.263-2.624-.127-1.032-.978-1.358-3.096-1.448-3.185-.145-5.393-1.358-5.755-4.507-.435-3.729 1.9-7.675 6.516-9.322 2.172-.796 3.764-.85 5.068-.633-.2 1.629-.38 3.276-.561 4.905-.833-.145-2.245-.272-4.073.38-1.484.525-2.208 1.448-2.1 2.407.109 1.068 1.123 1.159 3.512 1.34 3.385.253 5.086 1.81 5.376 4.778.38 3.674-1.72 7.62-6.933 9.52-2.136.779-4.308.887-5.375.634.126-1.683.235-3.348.362-5.032m17.1-17.2a199.43 199.43 0 00-4.651 1.52c-.181-1.592-.326-3.185-.489-4.778a377.643 377.643 0 0114.408-4.47l.434 4.796c-1.593.452-3.186.923-4.778 1.393.506 5.539 1.013 11.06 1.52 16.598-1.611.489-3.24.977-4.85 1.502-.526-5.52-1.069-11.04-1.594-16.561m17.233-.431c.435-.108.851-.217 1.285-.344 1.865-.47 2.86-1.828 2.733-3.42-.126-1.612-1.104-2.281-2.769-1.883-.923.235-1.412.434-1.665.561.145 1.701.29 3.385.416 5.086m-5.647-7.656c1.376-.652 3.475-1.43 5.955-2.064 2.842-.742 4.923-.814 6.425.073 1.267.76 2.046 2.136 2.19 4.235.2 2.68-1.393 4.996-2.787 5.955v.127c1.285.308 2.045 1.52 2.643 3.258.742 2.063 1.556 5.05 1.973 5.792-1.684.38-3.349.796-5.032 1.212-.326-.579-.905-2.117-1.647-4.615-.688-2.443-1.43-2.824-2.95-2.425-.272.072-.525.144-.797.217l.652 8.036c-1.611.435-3.222.869-4.833 1.321l-1.792-21.122m22.221 16.065c-.199-2.896-.38-5.774-.579-8.67a799.767 799.767 0 00-6.77-11.511c1.92-.434 3.838-.869 5.757-1.285l1.9 4.507a91.154 91.154 0 011.539 3.692c.018 0 .036 0 .054-.018.271-1.376.58-2.643.923-4.2.416-1.719.833-3.438 1.267-5.158a286.25 286.25 0 015.665-1.086c-1.828 4.598-3.62 9.195-5.394 13.793.181 2.968.362 5.936.562 8.905-1.648.344-3.295.67-4.924 1.031m24.602-22.909c-.905.127-1.358 1.104-1.322 1.991.037.905.435 1.702 1.358 2.625 1.068-1.159 1.502-1.955 1.466-2.95-.036-.87-.543-1.792-1.484-1.666h-.018m.18 14.68c.87-.127 1.575-.544 1.974-.978-1.25-1.122-2.589-2.643-3.982-4.127-.598.706-.978 1.52-.942 2.552.073 1.575 1.159 2.788 2.933 2.552h.018m5.448 3.114c-.362-.38-.724-.743-1.05-1.195-1.014.995-2.643 2.009-4.905 2.335-4.869.706-6.95-2.154-7.095-5.104-.145-2.824 1.104-5.086 3.222-6.697v-.109c-.797-.778-1.52-2.244-1.593-3.819-.145-2.787 1.701-6.19 5.81-6.751 3.15-.435 5.61 1.321 5.738 4.543.09 2.136-.96 4.163-3.33 5.918 0 .055-.019.091-.019.145.869.941 1.81 2.082 2.625 2.842.67-1.376 1.158-3.385 1.32-4.996 1.485-.18 2.987-.344 4.472-.506-.399 3.294-1.304 6.226-2.987 8.67a104.677 104.677 0 003.53 4.054c-1.92.199-3.838.416-5.738.67m12.57-23.02c4.073-.344 8.145-.633 12.236-.833.018 1.575.054 3.15.072 4.725-2.37.108-4.724.253-7.095.434.036 1.321.072 2.66.09 4 2.227-.145 4.435-.29 6.643-.416a408 408 0 01.073 4.706c-2.19.108-4.399.253-6.607.398l.181 8.235a233.47 233.47 0 00-5.014.38c-.199-7.203-.38-14.425-.579-21.629m20.52-1.162c.054 7.222.127 14.444.181 21.648-1.665.054-3.348.108-5.014.18a9183.33 9183.33 0 01-.29-21.647 242.06 242.06 0 015.123-.181m8.587 9.253h1.321c1.9 0 3.005-1.086 3.005-2.68 0-1.646-.924-2.551-2.607-2.587-.96 0-1.466.054-1.72.126zm-5.068-9.05c1.43-.272 3.62-.489 6.154-.489 2.914 0 5.013.47 6.461 1.72 1.195 1.086 1.865 2.642 1.847 4.76-.019 2.697-1.792 4.58-3.295 5.176v.127c1.267.634 1.919 2.027 2.39 3.91.579 2.226 1.158 5.393 1.52 6.226-1.72-.036-3.42-.072-5.14-.09-.272-.652-.743-2.317-1.286-4.996-.506-2.606-1.212-3.15-2.769-3.15h-.814c0 2.716 0 5.412.018 8.127-1.665 0-3.312.019-4.978.055l-.108-21.376m29.15 13.334a423.961 423.961 0 00-6.77-.38l-.054 3.982c2.516.127 5.032.253 7.548.434l-.109 4.742a360.265 360.265 0 00-12.525-.615l.217-21.647a354.1 354.1 0 0112.38.597l-.108 4.724c-2.407-.163-4.815-.29-7.222-.416l-.054 3.511c2.262.109 4.525.235 6.787.38-.036 1.557-.054 3.131-.09 4.688m14.213-1.835c.29.054.616.126 1.14.18 1.992.218 3.259-.778 3.331-2.642.054-1.593-.85-2.805-2.77-3.023-.76-.09-1.266-.072-1.52-.036-.054 1.846-.126 3.674-.18 5.52m-4.725-10.063c1.376-.127 3.385-.127 6.3.181 2.732.308 4.65 1.104 5.918 2.425 1.267 1.25 2.045 3.277 1.955 5.503-.09 2.172-.815 4.018-2.028 5.086-1.592 1.376-3.819 1.774-6.335 1.484-.488-.036-.923-.127-1.23-.18-.09 2.443-.163 4.886-.236 7.33-1.665-.163-3.312-.326-4.959-.49zm21.528 11.78c.435.072.87.126 1.304.199 1.882.307 3.022-.598 3.113-2.19.09-1.648-.778-2.697-2.462-2.987-.941-.163-1.466-.163-1.701-.145-.09 1.702-.163 3.421-.254 5.123m-4.579-9.81c1.43-.055 3.602.072 6.136.47 2.878.47 4.923 1.267 6.28 2.733 1.16 1.285 1.738 2.932 1.612 5.05-.163 2.679-2.01 4.271-3.512 4.633v.127c1.213.815 1.792 2.317 2.172 4.254.453 2.316.869 5.556 1.177 6.461-1.684-.325-3.385-.615-5.068-.905-.236-.687-.616-2.425-1.032-5.176-.362-2.679-1.032-3.33-2.588-3.584l-.797-.127c-.126 2.697-.271 5.394-.398 8.09a460.93 460.93 0 00-4.923-.723zm20.922 14.237c-.254 4.018 1.104 6.823 3.475 7.33 2.39.525 3.964-1.864 4.235-5.72.272-3.71-.977-6.841-3.384-7.366-2.39-.507-4.073 1.792-4.326 5.756m12.96 2.642c-.525 6.914-4.363 10.426-10.028 9.195-5.683-1.213-8.561-6.805-8.217-12.778.362-6.263 4.253-10.607 10.009-9.358 6.027 1.321 8.688 7.24 8.235 12.941m5.885-4.312c-1.575-.415-3.15-.814-4.724-1.194l.362-4.814a337.367 337.367 0 0114.534 3.91c-.145 1.61-.272 3.203-.416 4.796-1.593-.453-3.186-.923-4.797-1.358-.452 5.539-.923 11.077-1.394 16.616a387.74 387.74 0 00-4.905-1.321c.453-5.557.887-11.095 1.34-16.634m22.686 14.961a302.32 302.32 0 00-6.498-2.135c-.126 1.32-.271 2.624-.38 3.927a488.75 488.75 0 017.258 2.39 386.397 386.397 0 00-.47 4.67 360.43 360.43 0 00-12.091-3.856c.651-7.131 1.285-14.245 1.937-21.376 4 1.194 7.982 2.461 11.946 3.819-.163 1.538-.308 3.095-.471 4.634a447.632 447.632 0 00-6.969-2.281l-.325 3.457c2.19.688 4.362 1.412 6.534 2.136-.163 1.538-.308 3.077-.47 4.615m15.952 14.208c-.742.11-2.443-.035-4.579-.85-6.624-2.516-9.068-8.47-8.489-14.136.779-7.511 5.9-9.72 11.295-7.656 2.1.796 3.728 1.936 4.434 2.715-.489 1.357-.977 2.733-1.466 4.09-.76-.687-1.81-1.502-3.24-2.045-2.787-1.068-5.43-.018-5.9 4.326-.417 3.873 1.267 6.968 4.543 8.217 1.158.453 2.497.67 3.276.616.036 1.574.09 3.15.126 4.724m8.142-13.349c-1.52-.633-3.041-1.267-4.561-1.882.18-1.575.38-3.15.56-4.724a338.847 338.847 0 0114.01 5.973l-.634 4.724a207.799 207.799 0 00-4.597-2.046c-.706 5.448-1.394 10.915-2.1 16.363a216.04 216.04 0 00-4.705-2.01zm16.934 2.603c-.977 7.004-1.955 13.991-2.932 20.996-1.557-.742-3.095-1.484-4.652-2.19l2.842-21.032a226.11 226.11 0 014.742 2.226m5.922 14.183c-.579 3.91.47 7.04 2.68 8.2 2.207 1.158 3.909-.78 4.488-4.508.543-3.602-.362-7.04-2.588-8.217-2.227-1.158-4.019.67-4.58 4.525m12.037 6.154c-1.086 6.697-4.996 9.104-10.245 6.353-5.285-2.751-7.53-9.05-6.715-14.86.85-6.1 4.923-9.34 10.245-6.552 5.593 2.95 7.602 9.52 6.715 15.059m.706 11.964a7116.269 7116.269 0 003.348-20.779 321.983 321.983 0 015.394 3.15 982.925 982.925 0 011.61 7.964c.58 2.606 1.087 5.954 1.394 8.832l.091.055c.217-2.878.615-5.829 1.14-8.924.29-1.629.561-3.24.851-4.868 1.376.85 2.733 1.7 4.109 2.57-1.213 6.878-2.426 13.738-3.638 20.597-1.539-.977-3.096-1.936-4.652-2.896-.543-2.86-1.086-5.72-1.647-8.579-.561-2.77-1.195-6.19-1.593-9.195a.137.137 0 01-.072-.036c-.362 2.86-.833 6.027-1.394 9.376-.272 1.701-.561 3.403-.833 5.104-1.375-.796-2.733-1.593-4.108-2.371" fill="#fff"/><path fill="#df2c2f" d="M391.691 307.432H162.04v-6.426h229.652zm8.44 148.383c-116.907-56.852-260.62-51.476-351.772 6.444 0 0 143.696 121.812 172.655 116.672 28.96-5.14 179.117-123.116 179.117-123.116"/><path stroke-width="17.883" stroke="#fac517" fill="none" d="M50.497 463.326c91.17-57.92 234.864-63.277 351.772-6.443"/><path fill="#fac517" d="M45.63 222.675l102.5.236-.109 99.097 145.36 127.441s-.325 3.023.688 4.344c.996 1.358 4.018 3.349 4.018 4.362 0 1.014 1.684 6.697 2.68 7.367 1.013.652 7.728 4.67 7.058 6.01-.67 1.357-8.054 5.7-7.728 7.04.343 1.321-.996 2.66-1.34 4.67-.326 2.009 1.683 8.362.344 9.683-1.34 1.358-.344 3.693-2.027 4.706-1.665.996-3.349 2.66-3.005 3.675.344 1.013 1.665 3.674.996 5.013-.652 1.34-1.684 5.014.344 5.358 2.009.326-9.213 2.081-8.87 3.746.326 1.684-6.588 5.032-11.638 6.716-5.031 1.665-46.969 9.936-46.969 9.936s1.683-4.687-3.022-5.013c0 0 1.339-5.014-2.028-11.041-3.348-6.028-9.394-14.715-21.14-21.412-11.747-6.68-3.023-.996-5.702-.67-2.697.344-4.706 0-4.706-1.014 0-.977 2.01-6.009-2.353-8.688-4.362-2.66-2.697 1.014-8.054 0-5.358-.995-9.412.688-13.105-7.366 0 0-4.687-7.675-31.204-5.684 0 0-2.371-4-5.376-3.656 0 0 2.028-3.692 1.666-4.706-.326-.995-2.01-2.66-2.01-2.66l-.325-4.345s1.665-6.027.67-7.366c-1.014-1.34-2.028-.326-3.693-1.34-1.683-.995-2.697-1.99-2.697-3.004s3.367-2.335.344-4.344c-3.023-2.01-3.366-2.679-4.38-3.005-.996-.362-1.321-4.018-4.344-4.688-3.023-.67-3.71-3.692-4.38-5.031-.67-1.322-3.023-7.349-6.697-8.344 0 0 .67-3.023-4.38-6.046-5.032-3.004-3.349-8.344-3.349-10.353 0-2.01-1.013-4.67.326-4.018 1.357.67 3.023 1.34 3.367-1.665.325-3.023-1.014-8.037-4.363-8.363-3.366-.343-1.683 2.335-3.022 1.666-1.358-.67-9.068-9.032-8.743-10.697.344-1.684.688-3.349 0-4.344-.651-1.014.344-5.032-1.665-4.037 0 0-2.697-10.009 2.68-10.009 0 0 1.682 0 1.013 6.353 0 0 2.009 1.34 3.022 2.317.996 1.032 3.023 3.692 5.702 3.023 0 0-1.34-1.34-2.353-1.991-1.014-.688 1.013-2.697-.67-4.688-1.683-2.01-2.679-3.349-2.679-3.349v-1.34l-2.697-1.013s3.023-2.678.344-3.674c-2.697-.995-1.339-2.66 0-2.66 1.34 0 3.023 0 3.023-1.014s-1.683-3.349-3.367-3.349c-1.665 0-3.692.996-3.348 2.01.344 1.013-1.34 2.352 0 3.674 1.34 1.339 2.353 3.674.67 3.674-1.684 0-2.01 1.683-3.367 0-1.34-1.665-3.348-1.665-3.348-1.665s-4.236-5.52-4.706-3.675c-.344 1.34-2.68 1.34-2.68 1.34s1.992-4.58.345-10.371c-1.358-4.688-2.353-3.675-7.06-9.702-3.058-3.928-11.42-10.371-10.732-11.71.651-1.34.995-4.345.651-5.684-.326-1.34-3.348-7.367-2.335-9.032.996-1.665 2.01-8.688.67-11.71-1.358-3.005-6.39-12.037-13.43-18.716 0 0 .326-1.357 0-4.018-.344-2.697 8.054-16.724 7.385-19.403-.67-2.679-1.014-3.349.343-5.683 1.34-2.335 2.335-14.716-1.013-18.082-3.349-3.33-1.358-1.322-.67-3.675.67-2.334.67-4.344.67-4.344"/><path fill="#fff" d="M177.696 329.742c.18 1.05.525 1.846 1.05 2.371.959.941 2.606 1.43 4.941 1.43 1.394 0 2.534-.127 3.403-.38 1.647-.489 2.461-1.376 2.461-2.679 0-.778-.398-1.357-1.194-1.774-.815-.416-2.1-.778-3.856-1.086l-3.004-.56c-2.95-.526-4.978-1.123-6.1-1.757-1.864-1.067-2.805-2.733-2.805-5.013 0-2.064.923-3.783 2.75-5.159 1.829-1.375 4.526-2.063 8.073-2.063 2.95 0 5.485.651 7.584 1.937 2.082 1.303 3.186 3.167 3.295 5.629H188.7c-.09-1.394-.851-2.371-2.245-2.969-.923-.38-2.063-.56-3.439-.56-1.538 0-2.75.234-3.674.741-.905.507-1.376 1.195-1.376 2.1 0 .832.453 1.448 1.358 1.864.58.254 1.81.58 3.692.941l4.87.96c2.117.416 3.728.977 4.796 1.683 1.647 1.086 2.48 2.66 2.48 4.724 0 2.118-.978 3.873-2.933 5.267-1.973 1.394-4.742 2.1-8.326 2.1-3.656 0-6.534-.688-8.615-2.082-2.1-1.357-3.15-3.258-3.15-5.665z"/><path stroke-width="2.244" stroke="#fff" fill="none" d="M177.696 329.742c.18 1.05.525 1.846 1.05 2.371.959.941 2.606 1.43 4.941 1.43 1.394 0 2.534-.127 3.403-.38 1.647-.489 2.461-1.376 2.461-2.679 0-.778-.398-1.357-1.194-1.774-.815-.416-2.1-.778-3.856-1.086l-3.004-.56c-2.95-.526-4.978-1.123-6.1-1.757-1.864-1.067-2.805-2.733-2.805-5.013 0-2.064.923-3.783 2.75-5.159 1.829-1.375 4.526-2.063 8.073-2.063 2.95 0 5.485.651 7.584 1.937 2.082 1.303 3.186 3.167 3.295 5.629H188.7c-.09-1.394-.851-2.371-2.245-2.969-.923-.38-2.063-.56-3.439-.56-1.538 0-2.75.234-3.674.741-.905.507-1.376 1.195-1.376 2.1 0 .832.453 1.448 1.358 1.864.58.254 1.81.58 3.692.941l4.87.96c2.117.416 3.728.977 4.796 1.683 1.647 1.086 2.48 2.66 2.48 4.724 0 2.118-.978 3.873-2.933 5.267-1.973 1.394-4.742 2.1-8.326 2.1-3.656 0-6.534-.688-8.615-2.082-2.1-1.357-3.15-3.258-3.15-5.665z"/><path fill="#fff" d="M204.556 336.899h-5.774v-23.186h5.774z"/><path stroke-width="2.244" stroke="#fff" fill="none" d="M204.553 336.908h-5.774v-23.186h5.774z"/><path fill="#fff" d="M209.878 313.727h6.081l11.06 16.145v-16.145h5.411v23.186h-5.81l-11.349-16.47v16.47h-5.393z"/><path stroke-width="2.244" stroke="#fff" fill="none" d="M209.878 313.727h6.081l11.06 16.145v-16.145h5.411v23.186h-5.81l-11.349-16.47v16.47h-5.393z"/><path fill="#fff" d="M240.515 316.165c2.245-1.918 5.086-2.86 8.543-2.86 4.634 0 8.019 1.285 10.154 3.838 1.177 1.448 1.81 2.877 1.9 4.344h-5.81c-.361-1.14-.85-1.991-1.429-2.57-1.032-.996-2.57-1.521-4.597-1.521-2.064 0-3.71.724-4.905 2.136-1.195 1.43-1.792 3.439-1.792 6.045s.633 4.561 1.9 5.864c1.249 1.304 2.86 1.955 4.797 1.955 1.99 0 3.511-.56 4.56-1.683.58-.58 1.069-1.484 1.449-2.679h5.774c-.49 2.534-1.774 4.58-3.82 6.154-2.045 1.575-4.67 2.371-7.873 2.371-3.946 0-7.059-1.068-9.321-3.203-2.263-2.154-3.385-5.105-3.385-8.833 0-4.036 1.285-7.168 3.855-9.358"/><path stroke-width="2.244" stroke="#fff" fill="none" d="M240.515 316.165c2.245-1.918 5.086-2.86 8.543-2.86 4.634 0 8.019 1.285 10.154 3.838 1.177 1.448 1.81 2.877 1.9 4.344h-5.81c-.361-1.14-.85-1.991-1.429-2.57-1.032-.996-2.57-1.521-4.597-1.521-2.064 0-3.71.724-4.905 2.136-1.195 1.43-1.792 3.439-1.792 6.045s.633 4.561 1.9 5.864c1.249 1.304 2.86 1.955 4.797 1.955 1.99 0 3.511-.56 4.56-1.683.58-.58 1.069-1.484 1.449-2.679h5.774c-.49 2.534-1.774 4.58-3.82 6.154-2.045 1.575-4.67 2.371-7.873 2.371-3.946 0-7.059-1.068-9.321-3.203-2.263-2.154-3.385-5.105-3.385-8.833 0-4.036 1.285-7.168 3.855-9.358z"/><path fill="#fff" d="M286.303 317.85h-14.698v4.905h13.485v4.019h-13.485v5.954h15.367v4.181h-21.05v-23.15h20.38z"/><path stroke-width="2.244" stroke="#fff" fill="none" d="M286.303 317.85h-14.698v4.905h13.485v4.019h-13.485v5.954h15.367v4.181h-21.05v-23.15h20.38z"/><path fill="#fff" d="M301.946 321.195v-3.04c1.702-.073 2.878-.164 3.566-.29 1.068-.2 1.955-.598 2.643-1.195.452-.398.814-.941 1.05-1.629.126-.398.199-.706.199-.905h4.488v22.77h-5.52v-15.71z"/><path stroke-width="2.244" stroke="#fff" fill="none" d="M301.946 321.195v-3.04c1.702-.073 2.878-.164 3.566-.29 1.068-.2 1.955-.598 2.643-1.195.452-.398.814-.941 1.05-1.629.126-.398.199-.706.199-.905h4.488v22.77h-5.52v-15.71z"/><path fill="#fff" d="M328.732 322.522c.616.525 1.466.796 2.552.796s1.937-.271 2.553-.796c.597-.507.886-1.195.886-2.01 0-.904-.29-1.592-.886-2.099-.616-.507-1.467-.76-2.553-.76-1.086 0-1.936.253-2.552.76-.615.507-.923 1.195-.923 2.1 0 .814.308 1.502.923 2.009m-.343 10.39c.687.615 1.665.922 2.895.922 1.231 0 2.209-.307 2.896-.923.706-.615 1.05-1.502 1.05-2.624 0-1.159-.362-2.046-1.068-2.661-.706-.597-1.665-.905-2.878-.905-1.212 0-2.171.308-2.877.905-.706.615-1.068 1.502-1.068 2.66 0 1.123.344 2.01 1.05 2.625m-5.575-5.81c.688-1.032 1.701-1.81 3.022-2.335-1.32-.724-2.172-1.52-2.588-2.389-.38-.85-.58-1.647-.58-2.39 0-1.646.743-3.058 2.245-4.235 1.503-1.158 3.62-1.737 6.353-1.737 2.752 0 4.851.58 6.353 1.737 1.503 1.177 2.263 2.589 2.263 4.236 0 .76-.2 1.538-.597 2.407-.399.85-1.25 1.593-2.57 2.226 1.339.616 2.352 1.448 3.04 2.48a6.21 6.21 0 011.032 3.475c0 1.919-.85 3.548-2.552 4.887-1.72 1.34-4.09 2.027-7.15 2.027-3.058 0-5.375-.687-6.932-2.027-1.593-1.34-2.371-2.968-2.371-4.887 0-1.285.344-2.443 1.032-3.475"/><path stroke-width="2.244" stroke="#fff" fill="none" d="M328.732 322.522c.616.525 1.466.796 2.552.796s1.937-.271 2.553-.796c.597-.507.886-1.195.886-2.01 0-.904-.29-1.592-.886-2.099-.616-.507-1.467-.76-2.553-.76-1.086 0-1.936.253-2.552.76-.615.507-.923 1.195-.923 2.1 0 .814.308 1.502.923 2.009zm-.343 10.39c.687.615 1.665.922 2.895.922 1.231 0 2.209-.307 2.896-.923.706-.615 1.05-1.502 1.05-2.624 0-1.159-.362-2.046-1.068-2.661-.706-.597-1.665-.905-2.878-.905-1.212 0-2.171.308-2.877.905-.706.615-1.068 1.502-1.068 2.66 0 1.123.344 2.01 1.05 2.625zm-5.575-5.81c.688-1.033 1.701-1.81 3.022-2.336-1.32-.724-2.172-1.52-2.588-2.389-.38-.85-.58-1.647-.58-2.39 0-1.646.743-3.058 2.245-4.235 1.503-1.158 3.62-1.737 6.353-1.737 2.752 0 4.851.58 6.353 1.737 1.503 1.177 2.263 2.589 2.263 4.236 0 .76-.2 1.538-.597 2.407-.399.85-1.25 1.593-2.57 2.226 1.339.616 2.352 1.448 3.04 2.48a6.21 6.21 0 011.032 3.475c0 1.919-.85 3.548-2.552 4.887-1.72 1.34-4.09 2.027-7.15 2.027-3.058 0-5.375-.687-6.932-2.027-1.593-1.34-2.371-2.968-2.371-4.887 0-1.285.344-2.443 1.032-3.475z"/><path fill="#fff" d="M350.206 322.522c.616.525 1.466.796 2.552.796s1.937-.271 2.552-.796c.598-.507.887-1.195.887-2.01 0-.904-.29-1.592-.887-2.099-.615-.507-1.466-.76-2.552-.76s-1.936.253-2.552.76c-.615.507-.923 1.195-.923 2.1 0 .814.308 1.502.923 2.009m-.344 10.39c.688.615 1.665.922 2.896.922 1.231 0 2.208-.307 2.896-.923.706-.615 1.05-1.502 1.05-2.624 0-1.159-.362-2.046-1.068-2.661-.706-.597-1.665-.905-2.878-.905-1.212 0-2.172.308-2.878.905-.706.615-1.068 1.502-1.068 2.66 0 1.123.344 2.01 1.05 2.625m-5.575-5.81c.688-1.032 1.702-1.81 3.023-2.335-1.321-.724-2.172-1.52-2.588-2.389-.38-.85-.58-1.647-.58-2.39 0-1.646.743-3.058 2.245-4.235 1.502-1.158 3.62-1.737 6.353-1.737 2.751 0 4.85.58 6.353 1.737 1.502 1.177 2.263 2.589 2.263 4.236 0 .76-.2 1.538-.598 2.407-.398.85-1.249 1.593-2.57 2.226 1.34.616 2.353 1.448 3.041 2.48a6.21 6.21 0 011.032 3.475c0 1.919-.851 3.548-2.552 4.887-1.72 1.34-4.091 2.027-7.15 2.027s-5.376-.687-6.932-2.027c-1.593-1.34-2.371-2.968-2.371-4.887 0-1.285.344-2.443 1.031-3.475"/><path stroke-width="2.244" stroke="#fff" fill="none" d="M350.206 322.522c.616.525 1.466.796 2.552.796s1.937-.271 2.552-.796c.598-.507.887-1.195.887-2.01 0-.904-.29-1.592-.887-2.099-.615-.507-1.466-.76-2.552-.76s-1.936.253-2.552.76c-.615.507-.923 1.195-.923 2.1 0 .814.308 1.502.923 2.009zm-.344 10.39c.688.615 1.665.922 2.896.922 1.231 0 2.208-.307 2.896-.923.706-.615 1.05-1.502 1.05-2.624 0-1.159-.362-2.046-1.068-2.661-.706-.597-1.665-.905-2.878-.905-1.212 0-2.172.308-2.878.905-.706.615-1.068 1.502-1.068 2.66 0 1.123.344 2.01 1.05 2.625zm-5.575-5.81c.688-1.033 1.702-1.81 3.023-2.336-1.321-.724-2.172-1.52-2.588-2.389-.38-.85-.58-1.647-.58-2.39 0-1.646.743-3.058 2.245-4.235 1.502-1.158 3.62-1.737 6.353-1.737 2.751 0 4.85.58 6.353 1.737 1.502 1.177 2.263 2.589 2.263 4.236 0 .76-.2 1.538-.598 2.407-.398.85-1.249 1.593-2.57 2.226 1.34.616 2.353 1.448 3.041 2.48a6.21 6.21 0 011.032 3.475c0 1.919-.851 3.548-2.552 4.887-1.72 1.34-4.091 2.027-7.15 2.027s-5.376-.687-6.932-2.027c-1.593-1.34-2.371-2.968-2.371-4.887 0-1.285.344-2.443 1.031-3.475z"/><path fill="#fff" d="M370.082 330.794c.217.977.633 1.719 1.23 2.262.598.525 1.467.778 2.625.778 1.34 0 2.353-.38 3.04-1.158.707-.778 1.05-1.756 1.05-2.95 0-1.14-.325-2.136-.977-2.933-.651-.796-1.665-1.194-3.059-1.194-.651 0-1.212.054-1.683.199-.85.253-1.484.724-1.9 1.412l-4.833-.2 1.936-12.579h15.041v3.801h-11.167l-.978 4.978c.833-.453 1.467-.76 1.937-.887.778-.254 1.72-.38 2.842-.38 2.262 0 4.235.633 5.918 1.9 1.684 1.267 2.534 3.113 2.534 5.52 0 2.118-.814 3.983-2.443 5.648-1.61 1.647-4.036 2.48-7.276 2.48-2.607 0-4.724-.58-6.408-1.756-1.665-1.159-2.588-2.806-2.787-4.941z"/><path stroke-width="2.244" stroke="#fff" fill="none" d="M370.082 330.794c.217.977.633 1.719 1.23 2.262.598.525 1.467.778 2.625.778 1.34 0 2.353-.38 3.04-1.158.707-.778 1.05-1.756 1.05-2.95 0-1.14-.325-2.136-.977-2.933-.651-.796-1.665-1.194-3.059-1.194-.651 0-1.212.054-1.683.199-.85.253-1.484.724-1.9 1.412l-4.833-.2 1.936-12.579h15.041v3.801h-11.167l-.978 4.978c.833-.453 1.467-.76 1.937-.887.778-.254 1.72-.38 2.842-.38 2.262 0 4.235.633 5.918 1.9 1.684 1.267 2.534 3.113 2.534 5.52 0 2.118-.814 3.983-2.443 5.648-1.61 1.647-4.036 2.48-7.276 2.48-2.607 0-4.724-.58-6.408-1.756-1.665-1.159-2.588-2.806-2.787-4.941z"/><path fill="#110f0d" d="M424.66 420.694s-102.246 105.414-199.352 134.32C120.455 526.107 23.765 420.005 23.765 420.005l-.887-332.73C120.13 5.517 316.115 6.73 424.66 88.885zM0 71.329v362.578s114.844 116.817 225 147.858c110.337-32.11 225-147.858 225-147.858V73.465C340.061-24.129 121.288-24.129 0 71.33"/><path fill="#fac517" d="M421.39 420.432s-115.46 107.965-197.688 130.97c-94.644-26.932-198.32-130.97-198.32-130.97V88.226C135.755 9.944 313.26 8.333 421.389 89.836zM13.652 80.696v344.46s113.396 111.767 212.149 138.862C326.13 536.524 437.95 425.156 437.95 425.156V82.74C335.125-9.984 127.266-9.984 13.653 80.696"/></svg>